<?xml version="1.0" encoding="UTF-8"?>
<svg width="80px" height="80px" viewBox="0 0 80 80" version="1.1" xmlns="http://www.w3.org/2000/svg" xmlns:xlink="http://www.w3.org/1999/xlink">
    <!-- Generator: Sketch 49.3 (51167) - http://www.bohemiancoding.com/sketch -->
    <title>Artboard 11</title>
    <desc>Created with Sketch.</desc>
    <defs></defs>
    <g id="Artboard-11" stroke="none" stroke-width="1" fill="none" fill-rule="evenodd">
        <g id="noun_tile-pattern_1809399" transform="translate(-3.000000, 3.000000)" fill="#000000" fill-rule="nonzero">
            <path d="M78.5406316,0.650105263 L6.81684211,0.650105263 C6.352,0.650105263 5.97473684,1.02652632 5.97473684,1.49221053 L5.97473684,73.2564211 C5.97473684,73.7221053 6.352,74.0985263 6.81684211,74.0985263 L78.5406316,74.0985263 C79.0054737,74.0985263 79.3827368,73.7221053 79.3827368,73.2564211 L79.3827368,1.49221053 C79.3827368,1.02736842 79.0046316,0.650105263 78.5406316,0.650105263 Z M68.2475789,62.3343158 L68.2475789,47.9823158 C68.2475789,47.8997895 68.2138947,47.8256842 68.16,47.7734737 L57.7818947,37.3945263 L68.1616842,26.9751579 C68.1625263,26.9743158 68.1616842,26.9734737 68.1625263,26.9734737 C68.2147368,26.9212632 68.2467368,26.8488421 68.2475789,26.768 C68.2475789,26.7671579 68.2475789,26.7663158 68.2475789,26.7654737 L68.2475789,12.3738947 L78.2458947,12.3738947 L78.2458947,62.3343158 L68.2475789,62.3343158 Z M53.3869474,62.3343158 L43.0955789,52.0429474 L57.3658947,37.8113684 L67.6589474,48.1044211 L67.6589474,62.3351579 L53.3869474,62.3351579 L53.3869474,62.3343158 Z M31.9696842,62.3343158 L17.6985263,62.3343158 L17.6985263,48.1044211 L28.0311579,37.8105263 L42.2627368,52.0421053 L31.9696842,62.3343158 Z M17.1090526,12.3738947 L17.1090526,26.7671579 C17.1090526,26.8496842 17.1427368,26.9229474 17.1966316,26.976 L27.6143158,37.3936842 L17.1957895,47.7726316 L17.1957895,47.7734737 C17.1435789,47.8256842 17.1098947,47.8981053 17.1098947,47.9789474 C17.1098947,47.9797895 17.1090526,47.9806316 17.1090526,47.9823158 L17.1090526,62.3343158 L7.11073684,62.3343158 L7.11073684,12.3738947 L17.1090526,12.3738947 Z M31.9688421,12.3738947 L42.2627368,22.7073684 L28.0311579,36.9776842 L17.6985263,26.6450526 L17.6985263,12.3738947 L31.9688421,12.3738947 Z M53.3877895,12.3738947 L67.6581053,12.3738947 L67.6581053,26.6442105 L57.3650526,36.9776842 L43.0947368,22.7073684 L53.3877895,12.3738947 Z M42.6787368,51.6261053 L28.4471579,37.3945263 L42.6787368,23.1242105 L56.9482105,37.3936842 L42.6787368,51.6261053 Z M68.2475789,11.7852632 L68.2475789,1.78694737 L78.2458947,1.78694737 L78.2458947,11.7852632 L68.2475789,11.7852632 Z M67.6589474,11.7852632 L53.2665263,11.7852632 C53.2648421,11.7852632 53.264,11.7861053 53.2631579,11.7861053 C53.1823158,11.7869474 53.1098947,11.8189474 53.0576842,11.872 L53.0568421,11.872 L42.6787368,22.2896842 L32.2997895,11.872 L32.2989474,11.872 C32.2467368,11.8197895 32.1743158,11.7869474 32.0951579,11.7861053 C32.0934737,11.7861053 32.0926316,11.7852632 32.0917895,11.7852632 C32.0917895,11.7852632 32.0917895,11.7852632 32.0909474,11.7852632 L17.6985263,11.7852632 L17.6985263,1.78694737 L67.6589474,1.78694737 L67.6589474,11.7852632 Z M17.1090526,11.7852632 L7.11073684,11.7852632 L7.11073684,1.78694737 L17.1090526,1.78694737 L17.1090526,11.7852632 Z M7.11073684,62.9237895 L17.1090526,62.9237895 L17.1090526,72.9625263 L7.11073684,72.9625263 L7.11073684,62.9237895 Z M17.6985263,62.9237895 L32.0917895,62.9237895 C32.1743158,62.9237895 32.2475789,62.8901053 32.3006316,62.8362105 L42.6787368,52.4581053 L53.0568421,62.8362105 C53.1098947,62.8892632 53.1831579,62.9237895 53.2656842,62.9237895 L67.6589474,62.9237895 L67.6589474,72.9625263 L17.6985263,72.9625263 L17.6985263,62.9237895 Z M68.2475789,62.9237895 L78.2458947,62.9237895 L78.2458947,72.9625263 L68.2475789,72.9625263 L68.2475789,62.9237895 Z" id="Shape"></path>
        </g>
    </g>
</svg>